<?xml version="1.0" encoding="UTF-8"?>
<svg width="36px" height="30px" viewBox="0 0 36 30" version="1.1" xmlns="http://www.w3.org/2000/svg" xmlns:xlink="http://www.w3.org/1999/xlink">
    <!-- Generator: Sketch 51.2 (57519) - http://www.bohemiancoding.com/sketch -->
    <title>Espresso_Machine_outline</title>
    <desc>Created with Sketch.</desc>
    <defs></defs>
    <g id="Page-1" stroke-width="1" fill="none" fill-rule="evenodd" stroke-linecap="round" stroke-linejoin="round">
        <g id="Artboard" transform="translate(-360.000000, -160.000000)" stroke-width="1">
            <g id="CoffeeIcons" transform="translate(103.000000, 92.000000)">
                <g id="outline" transform="translate(257.000000, 0.000000)">
                    <g id="Espresso_Machine_" transform="translate(0.000000, 69.000000)">
                        <g id="Espresso_Machine_2_">
                            <path d="M27.5,8.1 C19.2,7.2 10.9,7.2 2.6,8.1 C1.5,8.1 0.6,7.2 0.6,6.1 L0.6,2.5 C0.6,1.4 1.5,0.5 2.6,0.5 C10.9,-0.1 19.2,-0.1 27.5,0.5 C28.6,0.5 29.5,1.4 29.5,2.5 L29.5,6.1 C29.5,7.2 28.6,8.1 27.5,8.1 Z" id="Shape"></path>
                            <path d="M27,8.1 C27,8.1 27.1,9.3 27.1,9.3" id="Shape"></path>
                            <path d="M6.4,25.5 C3.92066248,19.4504165 2.52321712,13.5975406 2.98799143,8.13645423" id="Shape"></path>
                            <path d="M26.9,12.9 C26.5034355,16.9647859 25.2222645,21.1278614 23.5437141,25.486672" id="Shape"></path>
                            <path d="M25.5,28.5 L4.5,28.5 C3.7,28.5 3,27.8 3,27 L3,26.4 C3,25.9 3.4,25.5 3.9,25.5 L26.1,25.5 C26.6,25.5 27,25.9 27,26.4 L27,27 C27,27.9 26.3,28.5 25.5,28.5 Z" id="Shape"></path>
                            <path d="M15,1.8 C16,1.8 16.9,2.6 16.9,3.7 C16.9,4.8 16,5.5 15,5.5 C14,5.5 13.1,4.7 13.1,3.6 C13.1,3.4 13.1,3.1 13.2,2.9" id="Shape"></path>
                            <path d="M21.7,4.7 C21.6,4.5 21.6,4.3 21.6,4.1 C21.6,3.1 22.4,2.2 23.5,2.2 C24.5,2.2 25.4,3 25.4,4.1 C25.4,5.2 24.6,6 23.5,6" id="Shape"></path>
                            <path d="M6.8,5.9 C6.7,5.9 6.5,5.9 6.4,5.9 C5.4,5.9 4.5,5.1 4.5,4 C4.5,2.9 5.3,2.1 6.4,2.1 C7.5,2.1 8.3,2.9 8.3,4" id="Shape"></path>
                            <path d="M12.8,25.5 C10.6,25 10,17.6 12.3,17.4 L17.8,17.4 C19.9,17.6 19.2,25.1 17.2,25.5" id="Shape"></path>
                            <path d="M16.6,13 L13.3,13 C11.9,13 10.9,11.9 10.9,10.6 L10.9,7.7 C13.4,7.5 16.1,7.5 19,7.6 L19,10.6 C19,11.9 17.9,13 16.6,13 Z" id="Shape"></path>
                            <path d="M19.2,10.1 L22.1,10.1 M22.1,12 L18.9,11.9" id="Shape"></path>
                            <path d="M33.2,12.8 L22.2,12.8 L22.2,9.3 L33.2,9.3 C34.2,9.3 34.9,10.1 34.9,11 C34.9,12 34.2,12.8 33.2,12.8 Z" id="Shape"></path>
                            <path d="M16.9,14.6 L16.1,14.6 C15.9,14.6 15.7,14.4 15.7,14.2 L15.7,13 L17.2,13 L17.2,14.3 C17.2,14.3 17.2418696,14.6 16.9,14.6 Z" id="Shape"></path>
                            <path d="M13.8,14.6 L13,14.6 C12.8,14.6 12.6,14.4 12.6,14.2 L12.6,13 L14.1,13 L14.1,14.3 C14.1,14.3 14.1341649,14.6 13.8,14.6 Z" id="Shape"></path>
                        </g>
                    </g>
                </g>
            </g>
        </g>
    </g>
</svg>
