<?xml version="1.0" encoding="UTF-8" standalone="yes"?>
<svg xmlns="http://www.w3.org/2000/svg" viewBox="0 0 50 50" width="50" height="50">
  <path d="M 26 1 C 25.449219 1 25 1.449219 25 2 C 25 4.921875 23.75 6.023438 22.3125 7.3125 C 20.765625 8.699219 19.03125 10.28125 19.03125 14 C 19.03125 14.550781 19.480469 15 20.03125 15 C 20.582031 15 21.03125 14.550781 21.03125 14 C 21.03125 11.175781 22.242188 10.082031 23.65625 8.8125 C 25.226563 7.40625 27 5.816406 27 2 C 27 1.449219 26.554688 1 26 1 Z M 31 6 C 30.445313 6 30 6.449219 30 7 C 30 8.816406 29.257813 9.472656 28.3125 10.3125 C 27.28125 11.230469 26 12.386719 26 15 C 26 15.550781 26.445313 16 27 16 C 27.554688 16 28 15.550781 28 15 C 28 13.28125 28.699219 12.664063 29.65625 11.8125 C 30.707031 10.875 32 9.714844 32 7 C 32 6.449219 31.554688 6 31 6 Z M 11 18 C 10.449219 18 10 18.449219 10 19 L 10 47 C 10 48.652344 11.347656 50 13 50 L 34 50 C 35.652344 50 37 48.652344 37 47 L 37 19 C 37 18.449219 36.554688 18 36 18 Z M 39 25 L 39 27 L 40 27 C 42.046875 27 43 27.953125 43 30 C 43 31.761719 42.65625 36.832031 39 38.46875 L 39 40.625 C 43.363281 39.285156 45 34.515625 45 30 C 45 26.867188 43.132813 25 40 25 Z"/>
</svg>
