<?xml version="1.0" encoding="iso-8859-1"?>
<!-- Generator: Adobe Illustrator 16.0.0, SVG Export Plug-In . SVG Version: 6.00 Build 0)  -->
<!DOCTYPE svg PUBLIC "-//W3C//DTD SVG 1.1//EN" "http://www.w3.org/Graphics/SVG/1.1/DTD/svg11.dtd">
<svg version="1.1" id="Capa_1" xmlns="http://www.w3.org/2000/svg" xmlns:xlink="http://www.w3.org/1999/xlink" x="0px" y="0px"
	 width="79.536px" height="79.536px" viewBox="0 0 79.536 79.536" style="enable-background:new 0 0 79.536 79.536;"
	 xml:space="preserve">
<g>
	<path d="M39.782,0c-3.738,0-6.773,3.021-6.773,6.76c0,3.729,3.029,6.75,6.768,6.75
		c3.718,0,6.742-3.021,6.742-6.75C46.529,3.021,43.505,0,39.782,0z M50.951,20.536c-1.656-3.389-4.225-5.444-10.532-5.444h-0.646
		h-0.647c-6.305,0-8.878,2.061-10.532,5.444c-0.832,1.691-2.576,22.877-2.576,22.877c-0.132,1.254,0.774,2.372,2.02,2.501
		c0.08,0.006,0.16,0.006,0.246,0.006c1.15,0,2.136-0.865,2.252-2.03l1.776-18.405l0.44,14.289l-1.3,36.931
		c-0.096,1.455,1.002,2.729,2.462,2.821c0.078,0.011,0.137,0.011,0.184,0.011c1.391,0,2.556-1.066,2.662-2.465l3.008-30.416
		l3.004,30.416c0.113,1.398,1.278,2.465,2.672,2.465c0.052,0,0.108,0,0.187-0.011c1.449-0.093,2.547-1.366,2.454-2.821
		l-1.295-36.931l0.436-14.289l1.781,18.405c0.113,1.165,1.108,2.03,2.258,2.03c0.082,0,0.155,0,0.243-0.011
		c1.248-0.124,2.148-1.242,2.014-2.496C53.519,43.413,51.775,22.227,50.951,20.536z"/>
</g>
<g>
</g>
<g>
</g>
<g>
</g>
<g>
</g>
<g>
</g>
<g>
</g>
<g>
</g>
<g>
</g>
<g>
</g>
<g>
</g>
<g>
</g>
<g>
</g>
<g>
</g>
<g>
</g>
<g>
</g>
</svg>
