<?xml version="1.0" encoding="utf-8"?>
<!-- Svg Vector Icons : http://www.onlinewebfonts.com/icon -->
<!DOCTYPE svg PUBLIC "-//W3C//DTD SVG 1.1//EN" "http://www.w3.org/Graphics/SVG/1.1/DTD/svg11.dtd">
<svg version="1.1" xmlns="http://www.w3.org/2000/svg" xmlns:xlink="http://www.w3.org/1999/xlink" x="0px" y="0px" viewBox="0 0 1000 1000" enable-background="new 0 0 1000 1000" xml:space="preserve">
<metadata> Svg Vector Icons : http://www.onlinewebfonts.com/icon </metadata>
<g><g><path d="M848.4,280.8c7.1,0,12.9-5.8,12.9-12.9V225c0-23.3-19-42.2-42.2-42.2h-69.3l-15.8-46.7c-2.2-6.6-9.3-10.2-16-8.2L342.7,242c-6.8,2.1-10.7,9.3-8.6,16.1c1.7,5.6,6.8,9.1,12.4,9.1c1.2,0,2.5-0.2,3.8-0.5l363.3-110.5l34.6,102.3c2.3,6.8,9.7,10.4,16.4,8.1c6.8-2.3,10.4-9.6,8.1-16.4l-14.1-41.6h60.6c9.1,0,16.5,7.4,16.5,16.5v43C835.5,275,841.3,280.8,848.4,280.8z M951.3,474.2c-7.1,0-12.9,5.8-12.9,12.9c0,7.1,5.8,12.9,12.9,12.9c9.1,0,12.9,3.8,12.9,12.9v154.7c0,9.1-3.8,12.9-12.9,12.9H745c-9.1,0-12.9-3.8-12.9-12.9V538.7c0-9.1,3.8-12.9,12.9-12.9h154.7c7.1,0,12.9-5.8,12.9-12.9V358.2c0-23.5-15.2-38.7-38.7-38.7H87.4c-31.8,0-51.6-19.8-51.6-51.6s19.8-51.6,51.6-51.6h130.9l-78,25.7c-6.8,2.2-10.4,9.5-8.2,16.3c1.8,5.4,6.8,8.8,12.3,8.8c1.3,0,2.7-0.2,4-0.6l467.3-154c6.8-2.2,10.4-9.5,8.2-16.3c-2.2-6.8-9.5-10.4-16.3-8.2L295.4,190.9c-0.6-0.1-1.1-0.4-1.8-0.4H87.4c-46.3,0-77.4,31.1-77.4,77.4v567.4c0,46.3,31.1,77.4,77.4,77.4h786.6c23.5,0,38.7-15.2,38.7-38.7V745c0-7.1-5.8-12.9-12.9-12.9c-7.1,0-12.9,5.8-12.9,12.9V874c0,9.1-3.8,12.9-12.9,12.9H87.4c-31.8,0-51.6-19.8-51.6-51.6V327.5c13.2,11.2,30.7,17.7,51.6,17.7h786.6c9.1,0,12.9,3.8,12.9,12.9V500H745c-23.5,0-38.7,15.2-38.7,38.7v128.9c0,23.5,15.2,38.7,38.7,38.7h206.3c23.5,0,38.7-15.2,38.7-38.7V512.9C990,489.4,974.8,474.2,951.3,474.2z M809.5,603.2c0,14.2,11.5,25.8,25.8,25.8c14.2,0,25.8-11.5,25.8-25.8c0-14.2-11.5-25.8-25.8-25.8C821,577.4,809.5,588.9,809.5,603.2z"/></g></g>
</svg>